<?xml version="1.0" encoding="UTF-8" standalone="no"?>
<svg
   xmlns:dc="http://purl.org/dc/elements/1.1/"
   xmlns:cc="http://creativecommons.org/ns#"
   xmlns:rdf="http://www.w3.org/1999/02/22-rdf-syntax-ns#"
   xmlns:svg="http://www.w3.org/2000/svg"
   xmlns="http://www.w3.org/2000/svg"
   id="svg8"
   version="1.1"
   viewBox="0 0 300 300"
   height="300mm"
   width="300mm">
  <defs
     id="defs2" />
  <metadata
     id="metadata5">
    <rdf:RDF>
      <cc:Work
         rdf:about="">
        <dc:format>image/svg+xml</dc:format>
        <dc:type
           rdf:resource="http://purl.org/dc/dcmitype/StillImage" />
        <dc:title></dc:title>
      </cc:Work>
    </rdf:RDF>
  </metadata>
  <g
     transform="translate(0,3)"
     id="layer1">
    <path
       style="fill:none;fill-opacity:1;stroke:#000000;stroke-width:0.001;stroke-miterlimit:4;stroke-dasharray:none;stroke-opacity:1"
       d="m 268.11524,115.46027 c 0.16611,0.0746 0.28985,0.0933 0.48816,0.19672 q 2.85606,1.50083 4.86802,3.01354 2.9103,2.18934 5.10023,5.02651 1.19836,1.5517 2.50012,3.63082 2.17298,3.47311 3.4883,5.58615 1.13903,1.82982 2.89334,3.7207 2.1001,2.26566 5.02396,3.26791 0.578,0.19673 1.73229,0.45619 0.79834,0.17976 1.73737,0.4104 0.39662,0.0967 1.60685,1.06499 0.53901,0.43245 1.37972,1.65685 0.5441,0.79366 0.82546,1.85696 0.5441,2.05029 -0.13898,4.09719 -0.23222,0.69191 -0.52206,1.12944 -0.68647,1.03107 -1.25769,1.70942 -0.32713,0.38835 -1.40175,1.03277 -0.56613,0.33918 -1.62042,0.55116 -0.99666,0.2018 -1.81534,0.44262 -2.86962,0.84114 -4.81208,2.64553 -1.12039,1.03956 -2.46282,2.81173 -0.69835,0.92254 -1.86958,2.8219 -0.69834,1.13114 -3.3866,5.38264 -1.13903,1.7976 -1.9306,2.77951 -3.32896,4.1311 -8.08002,6.7478 -0.74072,0.40871 -2.40859,1.12775 a 0.07969493,0.08137013 59.494857 0 0 -0.0339,0.1221 q 2.72555,3.67662 3.94594,8.04514 0.51867,1.85356 0.98818,4.22437 0.14069,0.70547 0.29154,2.38098 0.0848,0.93781 0.11187,2.41659 0.0695,3.92591 0.28815,7.09885 c 0.10848,1.56019 0.28306,3.45616 0.80682,4.93833 q 0.75935,2.14186 2.04077,3.6817 c 0.63901,0.76652 1.68313,1.62972 2.32553,2.32332 q 0.34239,0.3714 0.86784,1.1074 0.4051,0.56811 0.57969,1.29563 0.28136,1.16505 0.44069,1.93836 c 0.039,0.18315 0.0237,0.43244 -0.003,0.61899 q -0.19662,1.33463 -0.60511,2.62688 c -0.1712,0.54437 -0.79835,1.38042 -1.16446,1.84678 q -0.66105,0.83775 -1.6594,1.41774 c -0.83394,0.48501 -2.1323,0.74787 -3.09845,0.90049 q -0.60342,0.0967 -1.41362,-0.0916 -1.65262,-0.38496 -2.05603,-0.51724 -1.217,-0.39852 -2.05603,-0.50027 -2.85945,-0.34596 -5.59178,0.66647 c -1.71702,0.63425 -3.09675,1.27867 -4.84259,2.21648 q -5.73925,3.08476 -6.63082,3.52399 -2.54757,1.25832 -6.45961,2.14186 -3.74086,0.84623 -7.73934,0.42905 -0.65936,-0.0695 -0.96784,-0.0865 -0.0864,-0.005 -0.0763,0.0814 0.41528,3.96152 -0.4068,7.80602 -0.54917,2.57431 -1.1136,4.35496 c -0.39155,1.23289 -0.94412,2.52513 -1.61025,3.8038 q -2.03907,3.91573 -3.70186,6.9954 -0.47968,0.88693 -1.07463,2.33689 -0.68308,1.66533 -0.90513,2.40642 -0.51358,1.72468 -0.37628,3.87842 c 0.0729,1.11587 0.12543,1.65006 0.44409,2.63027 q 0.25933,0.80214 0.57799,2.19104 c 0.1339,0.58338 0.21865,1.08196 0.1,1.65685 q -0.15933,0.78009 -0.35086,1.58393 -0.1695,0.70887 -0.66105,1.46183 -0.84241,1.29224 -2.14247,2.19104 -0.72038,0.49858 -1.54923,0.68174 -0.2034,0.0441 -1.66448,0.37478 -0.63223,0.14415 -1.15768,0.0322 -0.93564,-0.20011 -1.8967,-0.44092 -0.67799,-0.16789 -1.27463,-0.61051 -0.82038,-0.60881 -1.26616,-1.0243 -0.3051,-0.2832 -1.04073,-1.10061 c -1.83229,-2.03332 -4.50868,-3.27299 -7.21728,-3.62912 q -2.21705,-0.29169 -4.70022,-0.35953 -5.71551,-0.15432 -6.77996,-0.20689 c -2.27977,-0.11192 -4.807,-0.67156 -7.04948,-1.33803 q -4.28325,-1.27019 -7.81222,-4.06835 a 0.12544432,0.12717406 28.392191 0 0 -0.19662,0.0559 q -0.17289,0.45449 -0.4729,1.01073 c -1.88993,3.49177 -4.27308,6.61723 -7.32068,9.12539 q -0.39833,0.329 -1.76449,1.31938 -0.83224,0.60373 -1.83737,1.21593 -0.95767,0.58337 -3.54932,2.18426 c -2.14416,1.32446 -4.0934,2.55396 -5.89518,4.15315 -1.71364,1.52287 -2.91369,3.23399 -3.56966,5.27919 q -0.33052,1.02599 -0.71528,2.88805 -0.10679,0.51723 -0.38816,1.02259 -0.16611,0.29678 -0.62375,0.88863 -1.1543,1.49235 -2.55266,2.11813 -2.6764,1.19896 -5.42398,0.20689 -1.46787,-0.5308 -2.74928,-1.75521 -1.19327,-1.13961 -1.53058,-2.98979 c -0.38815,-2.12152 -1.22547,-4.43466 -2.57469,-6.09491 q -0.38985,-0.47653 -1.40346,-1.33463 -0.47798,-0.40531 -1.54583,-1.33634 -0.79495,-0.69191 -3.03912,-2.08759 -2.39503,-1.49066 -4.80022,-2.96266 -3.71204,-2.26905 -6.47657,-5.17914 -0.86614,-0.91067 -2.59843,-3.42054 -1.08988,-1.58053 -2.26281,-4.31426 -0.039,-0.0882 -0.12204,-0.0373 c -0.91869,0.56812 -1.73567,1.17523 -2.74928,1.73486 q -2.30519,1.27359 -4.74937,2.01129 -5.18837,1.56527 -9.6462,1.59919 -4.835824,0.0356 -7.369834,0.25777 -2.32554,0.2035 -3.51881,0.47993 -0.86784,0.20011 -2.0645,0.70208 -2.06281,0.86658 -3.46796,2.34706 -0.62545,0.65799 -1.50346,1.63141 -0.45934,0.51045 -1.51023,1.10909 -0.43392,0.24759 -1.15938,0.41549 c -0.901741,0.21029 -1.700071,0.47144 -2.520461,0.35613 q -0.28645,-0.039 -1.47464,-0.29508 -2.16959,-0.46467 -3.54762,-2.19444 c -0.49154,-0.6139 -0.9797,-1.31259 -1.19327,-2.12321 q -0.19154,-0.72752 -0.38307,-1.59919 -0.17289,-0.79196 -0.0152,-1.53645 0.28137,-1.32955 0.65257,-2.49968 0.34747,-1.09892 0.43222,-1.97228 0.26612,-2.76764 -0.66274,-5.46065 c -0.4763,-1.38213 -1.13225,-2.76595 -1.94416,-4.26169 q -1.23226,-2.27584 -3.15438,-5.89309 -0.87801,-1.65007 -1.27124,-2.59975 c -0.76275,-1.83831 -1.17124,-3.55621 -1.64415,-5.71503 -0.58646,-2.66927 -0.53392,-5.36738 -0.21187,-8.04853 a 0.12373449,0.12549325 0.57838943 0 0 -0.1356,-0.13906 q -4.017129,0.39005 -7.763069,-0.407 -2.59164,-0.55115 -4.26799,-1.07517 -1.77635,-0.55455 -3.96628,-1.67551 -1.80517,-0.92593 -6.65116,-3.52059 -1.95432,-1.04804 -3.90187,-1.78235 -2.60859,-0.98529 -5.67314,-0.71904 -0.76105,0.0661 -1.92212,0.43753 -1.00683,0.32052 -2.71708,0.66817 -0.36781,0.0746 -0.63731,0.0441 -0.97293,-0.10683 -2.11027,-0.42565 -1.10683,-0.31035 -1.90856,-0.92933 -1.2187,-0.9412 -2.00348,-2.3301 c -0.43392,-0.76822 -0.48646,-1.36347 -0.7441,-2.4556 -0.12374,-0.52063 -0.15764,-1.00056 -0.0407,-1.54662 0.2356,-1.08535 0.36611,-1.98415 0.76783,-2.63706 q 1.03055,-1.66702 2.62724,-3.01014 0.83393,-0.70208 1.59668,-1.96041 1.28989,-2.12999 1.66957,-4.35156 0.33222,-1.95023 0.43561,-4.44653 0.13221,-3.15938 0.18984,-5.81 0.0508,-2.30636 0.2034,-3.38493 0.51189,-3.62573 1.54583,-6.58839 1.29159,-3.70036 3.77475,-6.77664 a 0.07627468,0.07631346 0 0 0 -0.0288,-0.11871 q -4.36291,-1.95532 -7.76646,-5.1961 -2.32214,-2.21139 -4.24426,-5.12487 -1.03056,-1.56188 -1.94416,-3.05085 -1.16446,-1.89765 -1.58821,-2.55056 -0.56613,-0.87336 -1.63058,-2.52852 -1.07463,-1.66703 -2.74928,-3.26791 -2.3359003,-2.23008 -5.4140103,-2.98812 -1.84924,-0.45619 -1.91195,-0.47315 -0.78987,-0.2052 -1.37634,-0.61729 -1.98314,-1.3923 -2.84420004,-3.37645 -0.15424,-0.35443 -0.41018,-1.65176 -0.24577,-1.25154 0.25764,-2.96774 0.6424,-2.18935 2.56113004,-3.50025 c 0.74071,-0.50706 1.12717,-0.79196 2.06111,-1.01751 q 0.43392,-0.10514 1.69499,-0.43923 3.34253,-0.88693 5.6731403,-3.26791 1.40854,-1.43809 2.61877,-3.26961 2.22383,-3.36288 4.18663,-6.61892 c 1.31023,-2.17578 2.92895,-4.30917 4.67479,-5.96941 q 1.71364,-1.62971 4.55784,-3.50363 0.70173,-0.46127 1.77466,-0.98359 1.14751,-0.56133 1.84076,-0.85302 a 0.04578225,0.04407543 60.133474 0 0 0.017,-0.0678 q -2.47638,-3.32218 -3.71034,-7.33457 -0.65257,-2.12661 -1.08988,-4.3397 -0.36951,-1.86543 -0.46443,-3.768192 -0.0441,-0.86828 -0.31865,-8.180802 c -0.12713,-3.36288 -0.78479,-6.92757 -3.13235,-9.44591 q -0.56274,-0.60373 -1.70008,-1.62972 -0.3068,-0.27812 -1.33227,-1.7179 -0.37798,-0.5308 -0.50341,-1.10061 -0.40341,-1.83661 -0.41527,-1.89257 -0.10001,-0.50198 0.005,-1.00225 c 0.24577,-1.16506 0.36781,-2.0469 0.85936,-2.90331 q 0.24916,-0.43583 1.22039,-1.66193 0.31697,-0.40193 1.24243,-0.9819 0.55427,-0.34596 1.45092,-0.55964 1.30006,-0.30695 1.91704,-0.37648 0.51528,-0.0577 1.38142,0.14246 1.13395,0.26285 1.98144,0.51553 1.24243,0.3697 1.99332,0.45958 2.96793,0.35613 5.67992,-0.67495 1.47464,-0.56133 2.65944,-1.16505 4.05273,-2.06216 5.67653,-2.95926 2.48486,-1.37365 3.78153,-1.94685 2.17129,-0.95985 5.39686,-1.73825 3.71542,-0.89711 7.327449,-0.56472 1.16616,0.10854 1.67974,0.14415 0.0814,0.005 0.0729,-0.0763 -0.34747,-3.49346 0.19323,-6.82412 c 0.4763,-2.93552 1.33735,-5.92701 2.68487,-8.633595 q 0.86276,-1.734861 2.24756,-4.237943 1.97636,-3.573165 3.27981,-6.768156 0.90005,-2.206307 0.8119,-4.81114 -0.0525,-1.50083 -0.40849,-2.718455 -0.34069,-1.166753 -0.34408,-1.182014 -0.14916,-0.608809 -0.35086,-1.487261 c -0.23222,-1.010731 0.0695,-1.8841 0.37628,-3.098328 q 0.1712,-0.681737 0.50511,-1.195576 1.33905,-2.070643 3.15269,-2.789684 0.78478,-0.310343 2.44079,-0.607117 0.58816,-0.10684 1.06445,0 1.645841,0.371394 2.166211,0.527415 0.45934,0.140753 1.14751,0.6529 0.94919,0.70717 1.78821,1.563579 c 1.09158,1.114175 1.59329,1.709422 2.64928,2.32841 q 2.54249,1.488959 5.30871,1.775561 1.9645,0.205195 4.5375,0.288294 2.04416,0.06783 6.264704,0.228942 1.94755,0.07461 3.74763,0.459576 1.86448,0.396827 3.29506,0.798743 2.70012,0.758049 5.1782,2.216486 1.15768,0.681731 2.94251,1.933275 0.0627,0.0441 0.0949,-0.02545 1.39667,-2.955759 3.83238,-6.088 1.15598,-1.485569 2.2679,-2.518349 2.5441,-2.362322 4.52215,-3.591817 1.91195,-1.187096 6.26469,-3.864851 0.63394,-0.390051 2.15434,-1.497445 2.07637,-1.5160911 3.5205,-3.2492531 c 1.08649,-1.304115 1.87637,-2.994879 2.25265,-4.719568 q 0.19492,-0.893713 0.44748,-1.8620446 c 0.15424,-0.588465 0.55595,-1.134525 0.9458,-1.685681 q 1.06107,-1.497439 2.82047,-2.308059 0.33392,-0.154322 1.3865,-0.369695 0.79156,-0.16111 1.41532,-0.135671 3.929,0.162803 5.92231,3.369663 0.44409,0.713958 0.62207,1.494049 0.14916,0.6579956 0.35595,1.5720586 c 0.11695,0.508756 0.28815,0.941201 0.48646,1.511008 q 1.02886,2.954178 3.5205,5.001074 2.06281,1.6958521 3.95103,2.9117851 0.66443,0.429048 4.92565,3.044059 1.9645,1.204056 2.83741,1.853565 c 1.97467,1.46861 3.83408,3.218732 5.2816,5.182535 q 0.61189,0.83097 1.456,2.126598 1.19327,1.829832 2.00009,3.861467 a 0.07796967,0.07800932 0 0 0 0.11696,0.03391 q 3.37472,-2.48443 7.3122,-3.712227 2.08145,-0.649516 4.34088,-1.088742 1.60515,-0.312035 2.75775,-0.384956 4.0273,-0.256073 8.18173,-0.305254 1.24921,-0.01359 4.10866,-0.400224 4.55953,-0.613898 7.46305,-3.8852 0.87801,-0.990382 1.28142,-1.287156 1.18819,-0.875061 1.51872,-1.014122 0.3678,-0.154322 2.12043,-0.517236 c 0.91699,-0.191632 1.40346,-0.03391 2.49673,0.208592 q 1.10004,0.242511 1.66618,0.551155 1.43396,0.78179 2.41197,2.107947 0.50171,0.680038 0.82716,1.921404 0.37629,1.43469 0.42375,2.080809 0.0203,0.271341 -0.24239,1.451656 -0.2,0.895411 -0.55426,2.113036 -0.33223,1.137916 -0.37629,1.979058 c -0.0881,1.700942 0.0356,3.447674 0.66444,5.113004 q 0.69664,1.841702 1.556,3.530773 0.95598,1.879005 2.35774,4.461789 1.65601,3.050846 2.19162,4.249813 0.8136,1.823041 1.36786,3.941171 0.54748,2.10455 0.8136,3.88181 0.46443,3.09324 -0.0627,6.54769 a 0.12034457,0.11870976 1.9705758 0 0 0.12883,0.13737 q 4.06459,-0.39853 7.919,0.42566 1.67126,0.35613 3.30863,0.81231 2.55605,0.71226 5.13922,2.08251 5.42736,2.87956 5.50872,2.92366 c 1.93399,1.03107 3.59678,1.80608 5.40364,2.44033 q 1.12717,0.39513 2.26621,0.4901 2.74928,0.22725 5.09684,-0.55285 0.54409,-0.18145 2.24417,-0.52232 0.58647,-0.11701 1.15429,-0.0136 1.75093,0.31882 2.20349,0.53589 c 1.60516,0.76653 3.21032,2.21988 3.67644,3.98187 q 0.007,0.0271 0.32205,1.31089 0.21527,0.88524 0.1356,1.48048 -0.1,0.75466 -0.45426,2.0893 c -0.23221,0.87676 -0.63223,1.41604 -1.27464,2.2097 -0.57968,0.71565 -1.47125,1.41434 -2.08992,2.00958 q -0.68478,0.65969 -1.27124,1.65176 -1.39668,2.36572 -1.75941,5.0757 -0.20509,1.53645 -0.24238,2.71676 -0.10848,3.395102 -0.21696,6.361152 -0.0865,2.365722 -0.2017,3.388322 -0.4746,4.23625 -1.99671,8.10788 -0.9797,2.49121 -3.28489,5.67603 -0.0644,0.0882 0.0356,0.13227 z M 168.6717,33.486039 q -0.60512,-1.197274 -0.99496,-1.724689 -0.80513,-1.085345 -1.86958,-2.099467 -0.73393,-0.69869 -2.23061,-1.633103 -1.97297,-1.231194 -2.47639,-1.53475 -3.16624,-1.911232 -5.9545,-3.886899 -2.65437,-1.880703 -4.90023,-4.14976 a 0.0966146,0.09666372 0 0 0 -0.13729,0 c -0.73902,0.76483 -1.44753,1.512707 -2.31537,2.221568 q -1.81872,1.482179 -3.86288,2.843954 -2.73572,1.821345 -6.5325,4.105663 c -2.17129,1.305807 -4.0646,2.949089 -5.4867,5.065516 q -0.34239,0.510455 -0.56613,0.993772 a 0.04576517,0.04409188 7.19593 0 0 0.0491,0.06275 q 18.62797,-3.213642 37.34408,0.01865 a 0.04237482,0.04239637 0 0 0 0.0457,-0.06102 q -0.007,-0.01359 -0.11187,-0.222154 z M 78.453995,57.263616 q 1.1509,-1.0226 4.237481,-3.22382 3.4544,-2.46238 5.73247,-3.92421 10.04283,-6.449335 21.114534,-10.543127 0.0966,-0.0373 0.0119,-0.09836 -1.44583,-1.044645 -3.14591,-1.687373 c -0.93564,-0.354434 -1.82212,-0.449404 -2.80012,-0.527408 q -1.23057,-0.100059 -2.50181,-0.127191 -4.368014,-0.09666 -7.793594,-0.328995 -2.46621,-0.166192 -4.57139,-0.663078 -2.82386,-0.664777 -2.87132,-0.676648 -0.0966,-0.02205 -0.11695,0.06275 -0.66275,2.581092 -0.76444,2.872777 -1.00344,2.879565 -2.56114,5.877834 -1.36617,2.631964 -3.001831,5.606489 -0.71359,1.29903 -1.44414,3.13734 -0.49493,1.24476 -0.63901,2.32671 -0.1356,1.00564 -0.1695,2.78799 -0.002,0.10853 0.0898,0.0509 0.51359,-0.31713 1.19497,-0.92255 z m 144.318485,0.94459 a 0.08644464,0.08648859 0 0 0 0.1356,-0.0644 q 0.1339,-1.75351 -0.11356,-3.46802 c -0.15086,-1.03278 -0.69834,-2.22157 -1.18989,-3.18482 q -1.47294,-2.88634 -3.50355,-6.669793 -1.00683,-1.877313 -1.51702,-3.030496 -1.3187,-2.984701 -1.9967,-6.086419 a 0.09157363,0.09322718 76.335567 0 0 -0.11357,-0.06953 q -1.80516,0.459576 -3.56287,0.847923 -1.69669,0.373092 -4.33409,0.534196 -0.23731,0.01359 -9.02923,0.410396 -1.99332,0.08819 -2.71369,0.257772 -1.08818,0.256073 -2.09162,0.715649 -1.12378,0.515545 -2.16281,1.132834 a 0.04916512,0.04747396 40.209365 0 0 0.008,0.08649 q 10.13945,3.773277 19.28563,9.422168 4.96464,3.0661 10.59371,7.33457 0.48815,0.3697 1.14751,0.9395 0.53053,0.45789 1.15767,0.89202 z m -37.69325,27.83916 a 0.21197504,0.21018588 75.859209 0 0 0.18306,0.10684 h 45.38514 q 0.10678,0 0.0423,-0.0865 -0.4068,-0.54098 -0.79156,-1.03787 -0.88648,-1.14639 -3.23574,-3.89707 -8.87838,-10.3939 -20.28568,-18.05916 -7.81222,-5.25037 -17.41266,-9.41878 -1.16107,-0.50536 -3.15777,-1.24815 -3.5561,-1.32615 -5.62908,-1.99432 -6.43758,-2.07743 -12.95991,-3.14412 -2.32384,-0.379867 -4.807,-0.686819 -0.11356,-0.01359 -0.0559,0.08649 z M 137.64147,46.683178 a 0.03051353,0.03221737 28.971448 0 0 -0.0119,-0.0441 q -0.0475,-0.02372 -0.12374,-0.01525 -8.74955,0.978511 -17.10417,3.596908 -13.80063,4.32782 -26.040184,12.41366 -3.40863,2.25209 -4.31037,2.92704 -11.763251,8.80318 -20.729761,20.4961 a 0.06102292,0.05935183 18.815736 0 0 0.0491,0.0967 h 45.407175 q 0.0864,0 0.13051,-0.0763 z m -6.92405,39.381148 a 0.05932475,0.05935492 0 0 0 0.0509,0.0899 h 38.46956 a 0.05932475,0.05935492 0 0 0 0.0509,-0.0899 l -19.23489,-33.30829 a 0.05932475,0.05935492 0 0 0 -0.1017,0 z m -92.097454,-3.62574 q 1.31023,4.73482 1.51702,9.605322 0.16102,3.79363 0.20848,6.18987 0.0508,2.689632 0.26273,3.547732 0.6085,2.47934 1.89839,4.63138 a 0.07120434,0.07290676 39.193536 0 0 0.12882,-0.0119 q 3.37982,-9.021952 8.2936,-17.368954 0.93564,-1.59072 1.57634,-2.5794 1.61872,-2.50308 1.64245,-2.54208 0.91869,-1.49405 1.87975,-2.81852 2.7764,-3.82923 5.337529,-7.00048 a 0.03389986,0.0339171 0 0 0 -0.0203,-0.0559 q -1.818729,-0.31539 -3.552699,0.32564 c -1.90857,0.70717 -3.74255,1.70603 -5.62229,2.70319 q -3.7256,1.97737 -4.78158,2.52174 -0.47121,0.24251 -0.83224,0.35613 -3.12557,0.9802 -7.86816,2.3725 a 0.10000458,0.10005543 0 0 0 -0.0678,0.1238 z m 222.944134,0.35952 a 0.06440973,0.06444248 0 0 0 -0.0491,-0.0814 q -3.31371,-0.67665 -6.38504,-2.10286 -1.74754,-0.81231 -7.39526,-3.83094 -1.20174,-0.64103 -2.77809,-1.38721 -2.98149,-1.40925 -6.15621,-1.19388 -0.0949,0.007 -0.0339,0.0814 3.39845,4.17859 5.12566,6.71219 3.01199,4.41601 4.50528,6.86822 4.77649,7.851812 8.22919,16.622774 0.68648,1.74333 0.82377,2.06046 a 0.05932475,0.05935492 0 0 0 0.10509,0.009 q 0.82377,-1.27529 1.41702,-2.60484 0.539,-1.21083 0.68308,-2.40472 0.19323,-1.614452 0.20849,-2.586182 0.0661,-4.38209 0.25594,-7.587252 0.25933,-4.35835 1.44413,-8.57424 z M 106.90954,99.910978 a 0.05932475,0.05935492 0 0 0 -0.0509,-0.0882 H 68.473855 a 0.05932475,0.05935492 0 0 0 -0.0509,0.0882 l 19.192401,33.218402 a 0.05932475,0.05935492 0 0 0 0.1017,0 z m 15.93294,-0.0814 q -0.0814,0.0475 -13.63622,23.535072 -13.556564,23.48758 -13.556564,23.58086 0,0.095 13.553174,23.58425 13.55317,23.48929 13.63453,23.53507 0.0814,0.0475 27.18938,0.0492 27.10802,0.002 27.18938,-0.0458 0.0814,-0.0458 13.63791,-23.53337 13.55486,-23.4876 13.55486,-23.58256 0,-0.0933 -13.55317,-23.58256 -13.55146,-23.489282 -13.63452,-23.536762 -0.0814,-0.0475 -27.18938,-0.0492 -27.10802,-0.002 -27.18938,0.0458 z m 108.85753,0.078 a 0.05593477,0.05596321 0 0 0 -0.0491,-0.0848 H 193.1508 a 0.05593477,0.05596321 0 0 0 -0.0491,0.0848 l 19.25004,33.332022 a 0.05593477,0.05596321 0 0 0 0.0983,0 z M 48.861116,146.92175 q -0.007,11.12142 2.25603,21.77478 0.36612,1.72808 0.78309,3.30183 1.95602,7.39732 4.96464,14.42325 a 0.02881488,0.02882953 0 0 0 0.0508,0.003 q 6.134169,-10.58383 7.156259,-12.37465 1.49159,-2.61161 3.01878,-5.20288 0.0593,-0.10006 12.63278,-21.85957 0.0119,-0.022 0.0119,-0.0475 0,-0.0238 -0.0119,-0.0458 -12.54464,-21.77647 -12.60397,-21.87653 -1.52379,-2.59296 -3.012,-5.20627 -1.02038,-1.79252 -7.140999,-12.38483 a 0.02881488,0.02882953 0 0 0 -0.0508,0.003 q -3.01709,7.02254 -4.98328,14.41816 -0.41867,1.57205 -0.78648,3.30013 -2.27807,10.64996 -2.28485,21.77308 z m 171.472274,0.0729 q 0,0.0559 0.0305,0.10684 17.5008,30.29644 22.71121,39.33535 a 0.03560268,0.03730059 40.989811 0 0 0.0644,-0.005 q 2.3035,-5.41148 3.99171,-10.98575 1.78652,-5.89479 2.75267,-12.12875 1.25938,-8.12654 1.26107,-16.31752 0,-8.19267 -1.25598,-16.31921 -0.96446,-6.23396 -2.74929,-12.13045 -1.68651,-5.57427 -3.98831,-10.98574 a 0.03730063,0.03560266 49.110031 0 0 -0.0644,-0.005 q -5.2138,9.0372 -22.72308,39.32856 -0.0305,0.0509 -0.0305,0.10684 z M 21.456466,146.86238 q 1.21531,1.12096 2.23909,2.36741 0.58816,0.71904 1.79839,2.34706 0.82037,1.1074 1.66617,2.43186 c 0.87293,1.36517 1.99671,3.10172 2.95777,4.73313 q 0.62545,1.06161 1.3865,2.18766 2.00687,2.96774 5.12905,4.69921 a 0.08135966,0.08140103 0 0 0 0.11865,-0.0865 q -3.17981,-18.55604 0.0237,-37.24775 a 0.03898484,0.03900466 0 0 0 -0.0542,-0.0424 q -2.72216,1.22272 -4.53411,3.4782 -0.4373,0.54437 -1.88652,2.81512 -1.05598,1.65685 -2.09332,3.32727 -2.10518,3.3951 -2.95946,4.5398 -1.75432,2.35385 -3.7934,4.36004 a 0.06101975,0.06105077 0 0 0 0.002,0.0899 z M 263.29977,128.34026 a 0.03559485,0.03561295 0 0 0 -0.0509,0.0373 q 3.19676,18.52552 -0.0186,37.33424 a 0.03389986,0.0339171 0 0 0 0.0475,0.0356 q 3.29507,-1.53984 5.22397,-4.40074 0.9814,-1.45844 2.20349,-3.52399 2.05434,-3.4765 4.55615,-6.84277 c 0.71867,-0.96834 1.38819,-1.67721 2.07467,-2.53701 0.32882,-0.41039 0.81867,-0.79705 1.21192,-1.20574 q 0.0627,-0.0644 -0.002,-0.12889 -1.63566,-1.60597 -2.07806,-2.1673 -2.87979,-3.6444 -5.16972,-7.41598 -1.46956,-2.41829 -1.90688,-3.14072 c -1.56108,-2.57261 -3.48829,-4.69243 -6.0918,-6.04402 z m -194.910645,65.6211 a 0.05762976,0.05765906 0 0 0 0.0509,0.0865 h 38.435665 a 0.05762976,0.05765906 0 0 0 0.0509,-0.0865 L 87.707026,160.67851 a 0.05762976,0.05765906 0 0 0 -0.0983,0 z m 124.809115,-0.007 a 0.06101975,0.06105077 0 0 0 0.0525,0.0916 h 38.31362 a 0.06101975,0.06105077 0 0 0 0.0525,-0.0916 l -19.15678,-33.16221 a 0.06101975,0.06105077 0 0 0 -0.10509,0 z M 42.479466,187.45755 q -2.02552,2.81511 -2.29671,6.31027 -0.0644,0.83267 -0.0915,3.8055 -0.0237,2.64723 -0.31019,6.15934 -0.16441,2.0079 -0.4068,3.36797 -0.31527,1.77047 -0.92038,4.00392 -0.0407,0.15093 0.11187,0.18315 3.47135,0.70039 6.81726,2.31823 1.94925,0.9412 8.36479,4.39566 1.22887,0.66307 3.1154,1.3058 c 1.36955,0.46637 2.94081,0.52911 4.330709,0.50367 a 0.06779972,0.06783419 0 0 0 0.0525,-0.11022 q -0.26951,-0.33579 -0.27798,-0.34427 -0.56782,-0.52062 -3.627289,-4.68904 -9.27669,-12.6392 -14.76169,-27.19642 -0.0373,-0.10175 -0.1,-0.0136 z m 196.200524,32.36369 a 0.03898484,0.03900466 0 0 0 0.0271,0.0627 q 1.07972,0.0865 2.59165,0.0102 1.01699,-0.0526 1.69499,-0.25607 0.95428,-0.2883 2.37978,-1.00735 2.45943,-1.24305 6.52571,-3.38831 c 3.05777,-1.61276 6.09181,-2.98301 9.38518,-3.65287 a 0.10508956,0.105143 0 0 0 0.0814,-0.12889 q -0.45596,-1.80778 -0.90512,-3.86824 -0.18645,-0.85641 -0.41189,-2.97283 -0.12543,-1.16845 -0.17967,-2.98979 -0.1695,-5.72012 -0.18475,-5.96433 -0.19323,-3.15768 -0.36273,-3.82924 -0.57799,-2.26736 -1.82551,-4.26846 a 0.0525631,0.05085791 56.111345 0 0 -0.0763,-0.0153 q -0.0407,0.0322 -0.0593,0.0797 -4.7731,12.63072 -12.29039,23.61986 -3.20523,4.68735 -6.39012,8.56916 z M 69.228145,207.72325 q 1.79161,2.47086 4.17138,5.21984 9.164831,10.59401 20.756881,18.3271 1.98145,1.32277 4.98328,3.08137 11.373414,6.66471 24.382484,10.33115 6.79014,1.91293 14.22438,2.71167 0.0407,0.003 0.0204,-0.0305 -3.00861,-5.12657 -4.32053,-7.40919 -1.00175,-1.74673 -18.50424,-32.1161 a 0.24589069,0.24408717 75.613156 0 0 -0.21018,-0.1204 H 69.231565 q -0.007,0 -0.003,0.005 z m 100.174095,0.0763 a 0.05423978,0.05426735 0 0 0 -0.0457,-0.0814 h -38.58821 a 0.05423978,0.05426735 0 0 0 -0.0457,0.0814 l 19.29241,33.4219 a 0.05423978,0.05426735 0 0 0 0.0949,0 z m 49.58193,13.0869 q 6.49861,-6.09829 11.73444,-13.02585 0.10848,-0.14246 -0.0712,-0.14246 h -45.32072 a 0.189844,0.18653932 13.055753 0 0 -0.16949,0.10515 q -0.20509,0.43074 -0.46782,0.88015 -1.82042,3.13902 -11.26492,19.54472 -0.13899,0.24081 -10.99881,18.99527 a 0.07627468,0.07631346 0 0 0 0.0644,0.11532 q 0.27459,0.007 0.8119,-0.0644 10.87846,-1.40926 20.73316,-5.0333 9.6445,-3.54773 17.8381,-8.48606 6.42403,-3.87163 12.12937,-8.59289 2.16959,-1.79761 3.50016,-2.94062 0.48816,-0.42057 1.48143,-1.35499 z m -109.62706,33.50501 q -0.017,-0.0289 -2.07975,-0.83945 -10.368284,-4.07684 -20.195854,-10.59061 -4.77479,-3.16447 -6.10366,-4.22777 -2.491651,-1.99094 -3.742551,-2.96266 a 0.08813963,0.08818445 0 0 0 -0.14238,0.0661 q -0.0593,1.34821 0.0271,2.60653 c 0.12034,1.73316 0.7458,3.04406 1.61872,4.69412 q 2.910311,5.50475 3.728981,7.13277 1.21023,2.40642 2.02383,4.68056 0.58477,1.63141 0.90852,3.30013 a 0.14068442,0.14075595 0 0 0 0.17797,0.10684 q 4.19002,-1.20406 8.32241,-1.43978 0.0475,-0.003 3.3866,-0.13227 c 2.17976,-0.0831 5.123974,-0.0678 7.635944,-0.44941 q 0.96107,-0.14584 2.01196,-0.6139 1.33735,-0.59524 2.41198,-1.19557 0.0712,-0.0407 0.0102,-0.13567 z m 104.7743,4.13958 a 0.10339457,0.10344714 0 0 0 0.12712,-0.0797 q 0.60681,-2.83887 1.77297,-5.49796 0.96105,-2.19275 2.62045,-5.26903 1.60177,-2.97114 2.06281,-3.86485 1.14921,-2.22497 1.57635,-3.54942 c 0.46103,-1.43639 0.51018,-2.99658 0.54578,-4.42958 a 0.05084979,0.05087564 0 0 0 -0.0797,-0.0424 q -0.6424,0.45618 -1.42718,1.12605 -0.34748,0.29677 -1.42549,1.12096 -4.71039,3.6003 -10.0208,6.88856 -9.14448,5.66246 -19.43818,9.49 a 0.06101975,0.06105077 0 0 0 -0.0136,0.10854 q 1.7628,1.16845 3.77136,1.86375 c 0.45935,0.15771 1.10006,0.27472 1.53058,0.30525 q 2.02722,0.15093 4.69683,0.19841 2.15434,0.0373 5.42906,0.25099 1.99331,0.13058 3.36795,0.33917 2.17807,0.33069 4.90362,1.04125 z m -45.8343,1.76199 q -16.13973,2.73711 -32.52861,0.62238 -1.88145,-0.2442 -4.47817,-0.70547 a 0.03728984,0.0373088 0 0 0 -0.039,0.0543 q 0.76953,1.48557 1.54583,2.58279 c 0.66614,0.94459 1.59669,1.6772 2.55267,2.38606 q 0.55595,0.41209 1.36955,0.90898 3.77814,2.30976 5.06972,3.15938 3.33745,2.19783 5.47483,3.95304 1.43397,1.17861 2.5052,2.28431 a 0.08474965,0.08479274 0 0 0 0.12204,-0.002 q 1.29159,-1.38721 3.30693,-3.03219 0.85428,-0.6987 3.34253,-2.36063 1.22378,-0.8174 2.85945,-1.82135 1.2187,-0.74787 3.31202,-2.03333 c 2.50181,-1.53475 4.54766,-3.40358 5.94603,-5.94567 a 0.05932475,0.05935492 0 0 0 -0.0509,-0.0882 q -0.0729,-0.003 -0.31018,0.0373 z"
       id="path4539" />
  </g>
</svg>
