<?xml version="1.0" encoding="UTF-8" standalone="no"?>
<!DOCTYPE svg PUBLIC "-//W3C//DTD SVG 1.1//EN" "http://www.w3.org/Graphics/SVG/1.1/DTD/svg11.dtd">
<svg xmlns="http://www.w3.org/2000/svg" version="1.1" viewBox="0.00 0.00 1775.00 1772.00">
<path fill="#000000" d="

  M 1584.33 700.05
  C 1585.31 700.49 1586.04 700.60 1587.21 701.21
  Q 1604.06 710.06 1615.93 718.98
  Q 1633.10 731.89 1646.02 748.62
  Q 1653.09 757.77 1660.77 770.03
  Q 1673.59 790.51 1681.35 802.97
  Q 1688.07 813.76 1698.42 824.91
  Q 1710.81 838.27 1728.06 844.18
  Q 1731.47 845.34 1738.28 846.87
  Q 1742.99 847.93 1748.53 849.29
  Q 1750.87 849.86 1758.01 855.57
  Q 1761.19 858.12 1766.15 865.34
  Q 1769.36 870.02 1771.02 876.29
  Q 1774.23 888.38 1770.20 900.45
  Q 1768.83 904.53 1767.12 907.11
  Q 1763.07 913.19 1759.70 917.19
  Q 1757.77 919.48 1751.43 923.28
  Q 1748.09 925.28 1741.87 926.53
  Q 1735.99 927.72 1731.16 929.14
  Q 1714.23 934.10 1702.77 944.74
  Q 1696.16 950.87 1688.24 961.32
  Q 1684.12 966.76 1677.21 977.96
  Q 1673.09 984.63 1657.23 1009.70
  Q 1650.51 1020.30 1645.84 1026.09
  Q 1626.20 1050.45 1598.17 1065.88
  Q 1593.80 1068.29 1583.96 1072.53
  A 0.48 0.47 -29.9 0 0 1583.76 1073.25
  Q 1599.84 1094.93 1607.04 1120.69
  Q 1610.10 1131.62 1612.87 1145.60
  Q 1613.70 1149.76 1614.59 1159.64
  Q 1615.09 1165.17 1615.25 1173.89
  Q 1615.66 1197.04 1616.95 1215.75
  C 1617.59 1224.95 1618.62 1236.13 1621.71 1244.87
  Q 1626.19 1257.50 1633.75 1266.58
  C 1637.52 1271.10 1643.68 1276.19 1647.47 1280.28
  Q 1649.49 1282.47 1652.59 1286.81
  Q 1654.98 1290.16 1656.01 1294.45
  Q 1657.67 1301.32 1658.61 1305.88
  C 1658.84 1306.96 1658.75 1308.43 1658.59 1309.53
  Q 1657.43 1317.40 1655.02 1325.02
  C 1654.01 1328.23 1650.31 1333.16 1648.15 1335.91
  Q 1644.25 1340.85 1638.36 1344.27
  C 1633.44 1347.13 1625.78 1348.68 1620.08 1349.58
  Q 1616.52 1350.15 1611.74 1349.04
  Q 1601.99 1346.77 1599.61 1345.99
  Q 1592.43 1343.64 1587.48 1343.04
  Q 1570.61 1341.00 1554.49 1346.97
  C 1544.36 1350.71 1536.22 1354.51 1525.92 1360.04
  Q 1492.06 1378.23 1486.80 1380.82
  Q 1471.77 1388.24 1448.69 1393.45
  Q 1426.62 1398.44 1403.03 1395.98
  Q 1399.14 1395.57 1397.32 1395.47
  Q 1396.81 1395.44 1396.87 1395.95
  Q 1399.32 1419.31 1394.47 1441.98
  Q 1391.23 1457.16 1387.90 1467.66
  C 1385.59 1474.93 1382.33 1482.55 1378.40 1490.09
  Q 1366.37 1513.18 1356.56 1531.34
  Q 1353.73 1536.57 1350.22 1545.12
  Q 1346.19 1554.94 1344.88 1559.31
  Q 1341.85 1569.48 1342.66 1582.18
  C 1343.09 1588.76 1343.40 1591.91 1345.28 1597.69
  Q 1346.81 1602.42 1348.69 1610.61
  C 1349.48 1614.05 1349.98 1616.99 1349.28 1620.38
  Q 1348.34 1624.98 1347.21 1629.72
  Q 1346.21 1633.90 1343.31 1638.34
  Q 1338.34 1645.96 1330.67 1651.26
  Q 1326.42 1654.20 1321.53 1655.28
  Q 1320.33 1655.54 1311.71 1657.49
  Q 1307.98 1658.34 1304.88 1657.68
  Q 1299.36 1656.50 1293.69 1655.08
  Q 1289.69 1654.09 1286.17 1651.48
  Q 1281.33 1647.89 1278.70 1645.44
  Q 1276.90 1643.77 1272.56 1638.95
  C 1261.75 1626.96 1245.96 1619.65 1229.98 1617.55
  Q 1216.90 1615.83 1202.25 1615.43
  Q 1168.53 1614.52 1162.25 1614.21
  C 1148.80 1613.55 1133.89 1610.25 1120.66 1606.32
  Q 1095.39 1598.83 1074.57 1582.33
  A 0.75 0.74 -60.7 0 0 1073.41 1582.66
  Q 1072.39 1585.34 1070.62 1588.62
  C 1059.47 1609.21 1045.41 1627.64 1027.43 1642.43
  Q 1025.08 1644.37 1017.02 1650.21
  Q 1012.11 1653.77 1006.18 1657.38
  Q 1000.53 1660.82 985.24 1670.26
  C 972.59 1678.07 961.09 1685.32 950.46 1694.75
  C 940.35 1703.73 933.27 1713.82 929.40 1725.88
  Q 927.45 1731.93 925.18 1742.91
  Q 924.55 1745.96 922.89 1748.94
  Q 921.91 1750.69 919.21 1754.18
  Q 912.40 1762.98 904.15 1766.67
  Q 888.36 1773.74 872.15 1767.89
  Q 863.49 1764.76 855.93 1757.54
  Q 848.89 1750.82 846.90 1739.91
  C 844.61 1727.40 839.67 1713.76 831.71 1703.97
  Q 829.41 1701.16 823.43 1696.10
  Q 820.61 1693.71 814.31 1688.22
  Q 809.62 1684.14 796.38 1675.91
  Q 782.25 1667.12 768.06 1658.44
  Q 746.16 1645.06 729.85 1627.90
  Q 724.74 1622.53 714.52 1607.73
  Q 708.09 1598.41 701.17 1582.29
  Q 700.94 1581.77 700.45 1582.07
  C 695.03 1585.42 690.21 1589.00 684.23 1592.30
  Q 670.63 1599.81 656.21 1604.16
  Q 625.60 1613.39 599.30 1613.59
  Q 570.77 1613.80 555.82 1615.11
  Q 542.10 1616.31 535.06 1617.94
  Q 529.94 1619.12 522.88 1622.08
  Q 510.71 1627.19 502.42 1635.92
  Q 498.73 1639.80 493.55 1645.54
  Q 490.84 1648.55 484.64 1652.08
  Q 482.08 1653.54 477.80 1654.53
  C 472.48 1655.77 467.77 1657.31 462.93 1656.63
  Q 461.24 1656.40 454.23 1654.89
  Q 441.43 1652.15 433.30 1641.95
  C 430.40 1638.33 427.52 1634.21 426.26 1629.43
  Q 425.13 1625.14 424.00 1620.00
  Q 422.98 1615.33 423.91 1610.94
  Q 425.57 1603.10 427.76 1596.20
  Q 429.81 1589.72 430.31 1584.57
  Q 431.88 1568.25 426.40 1552.37
  C 423.59 1544.22 419.72 1536.06 414.93 1527.24
  Q 407.66 1513.82 396.32 1492.49
  Q 391.14 1482.76 388.82 1477.16
  C 384.32 1466.32 381.91 1456.19 379.12 1443.46
  C 375.66 1427.72 375.97 1411.81 377.87 1396.00
  A 0.74 0.73 -89.4 0 0 377.07 1395.18
  Q 353.37 1397.48 331.27 1392.78
  Q 315.98 1389.53 306.09 1386.44
  Q 295.61 1383.17 282.69 1376.56
  Q 272.04 1371.10 243.45 1355.80
  Q 231.92 1349.62 220.43 1345.29
  Q 205.04 1339.48 186.96 1341.05
  Q 182.47 1341.44 175.62 1343.63
  Q 169.68 1345.52 159.59 1347.57
  Q 157.42 1348.01 155.83 1347.83
  Q 150.09 1347.20 143.38 1345.32
  Q 136.85 1343.49 132.12 1339.84
  Q 124.93 1334.29 120.30 1326.10
  C 117.74 1321.57 117.43 1318.06 115.91 1311.62
  C 115.18 1308.55 114.98 1305.72 115.67 1302.50
  C 117.06 1296.10 117.83 1290.80 120.20 1286.95
  Q 126.28 1277.12 135.70 1269.20
  Q 140.62 1265.06 145.12 1257.64
  Q 152.73 1245.08 154.97 1231.98
  Q 156.93 1220.48 157.54 1205.76
  Q 158.32 1187.13 158.66 1171.50
  Q 158.96 1157.90 159.86 1151.54
  Q 162.88 1130.16 168.98 1112.69
  Q 176.60 1090.87 191.25 1072.73
  A 0.45 0.45 0.0 0 0 191.08 1072.03
  Q 165.34 1060.50 145.26 1041.39
  Q 131.56 1028.35 120.22 1011.17
  Q 114.14 1001.96 108.75 993.18
  Q 101.88 981.99 99.38 978.14
  Q 96.04 972.99 89.76 963.23
  Q 83.42 953.40 73.54 943.96
  Q 59.76 930.81 41.60 926.34
  Q 30.69 923.65 30.32 923.55
  Q 25.66 922.34 22.20 919.91
  Q 10.50 911.70 5.42 900.00
  Q 4.51 897.91 3.00 890.26
  Q 1.55 882.88 4.52 872.76
  Q 8.31 859.85 19.63 852.12
  C 24.00 849.13 26.28 847.45 31.79 846.12
  Q 34.35 845.50 41.79 843.53
  Q 61.51 838.30 75.26 824.26
  Q 83.57 815.78 90.71 804.98
  Q 103.83 785.15 115.41 765.95
  C 123.14 753.12 132.69 740.54 142.99 730.75
  Q 153.10 721.14 169.88 710.09
  Q 174.02 707.37 180.35 704.29
  Q 187.12 700.98 191.21 699.26
  A 0.27 0.26 59.8 0 0 191.31 698.86
  Q 176.70 679.27 169.42 655.61
  Q 165.57 643.07 162.99 630.02
  Q 160.81 619.02 160.25 607.80
  Q 159.99 602.68 158.37 559.56
  C 157.62 539.73 153.74 518.71 139.89 503.86
  Q 136.57 500.30 129.86 494.25
  Q 128.05 492.61 122.00 484.12
  Q 119.77 480.99 119.03 477.63
  Q 116.65 466.80 116.58 466.47
  Q 115.99 463.51 116.61 460.56
  C 118.06 453.69 118.78 448.49 121.68 443.44
  Q 123.15 440.87 128.88 433.64
  Q 130.75 431.27 136.21 427.85
  Q 139.48 425.81 144.77 424.55
  Q 152.44 422.74 156.08 422.33
  Q 159.12 421.99 164.23 423.17
  Q 170.92 424.72 175.92 426.21
  Q 183.25 428.39 187.68 428.92
  Q 205.19 431.02 221.19 424.94
  Q 229.89 421.63 236.88 418.07
  Q 260.79 405.91 270.37 400.62
  Q 285.03 392.52 292.68 389.14
  Q 305.49 383.48 324.52 378.89
  Q 346.44 373.60 367.75 375.56
  Q 374.63 376.20 377.66 376.41
  Q 378.14 376.44 378.09 375.96
  Q 376.04 355.36 379.23 335.72
  C 382.04 318.41 387.12 300.77 395.07 284.81
  Q 400.16 274.58 408.33 259.82
  Q 419.99 238.75 427.68 219.91
  Q 432.99 206.90 432.47 191.54
  Q 432.16 182.69 430.06 175.51
  Q 428.05 168.63 428.03 168.54
  Q 427.15 164.95 425.96 159.77
  C 424.59 153.81 426.37 148.66 428.18 141.50
  Q 429.19 137.48 431.16 134.45
  Q 439.06 122.24 449.76 118.00
  Q 454.39 116.17 464.16 114.42
  Q 467.63 113.79 470.44 114.42
  Q 480.15 116.61 483.22 117.53
  Q 485.93 118.36 489.99 121.38
  Q 495.59 125.55 500.54 130.60
  C 506.98 137.17 509.94 140.68 516.17 144.33
  Q 531.17 153.11 547.49 154.80
  Q 559.08 156.01 574.26 156.50
  Q 586.32 156.90 611.22 157.85
  Q 622.71 158.29 633.33 160.56
  Q 644.33 162.90 652.77 165.27
  Q 668.70 169.74 683.32 178.34
  Q 690.15 182.36 700.68 189.74
  Q 701.05 190.00 701.24 189.59
  Q 709.48 172.16 723.85 153.69
  Q 730.67 144.93 737.23 138.84
  Q 752.24 124.91 763.91 117.66
  Q 775.19 110.66 800.87 94.87
  Q 804.61 92.57 813.58 86.04
  Q 825.83 77.10 834.35 66.88
  C 840.76 59.19 845.42 49.22 847.64 39.05
  Q 848.79 33.78 850.28 28.07
  C 851.19 24.60 853.56 21.38 855.86 18.13
  Q 862.12 9.30 872.50 4.52
  Q 874.47 3.61 880.68 2.34
  Q 885.35 1.39 889.03 1.54
  Q 912.21 2.50 923.97 21.41
  Q 926.59 25.62 927.64 30.22
  Q 928.52 34.10 929.74 39.49
  C 930.43 42.49 931.44 45.04 932.61 48.40
  Q 938.68 65.82 953.38 77.89
  Q 965.55 87.89 976.69 95.06
  Q 980.61 97.59 1005.75 113.01
  Q 1017.34 120.11 1022.49 123.94
  C 1034.14 132.60 1045.11 142.92 1053.65 154.50
  Q 1057.26 159.40 1062.24 167.04
  Q 1069.28 177.83 1074.04 189.81
  A 0.46 0.46 0.0 0 0 1074.73 190.01
  Q 1094.64 175.36 1117.87 168.12
  Q 1130.15 164.29 1143.48 161.70
  Q 1152.95 159.86 1159.75 159.43
  Q 1183.51 157.92 1208.02 157.63
  Q 1215.39 157.55 1232.26 155.27
  Q 1259.16 151.65 1276.29 132.36
  Q 1281.47 126.52 1283.85 124.77
  Q 1290.86 119.61 1292.81 118.79
  Q 1294.98 117.88 1305.32 115.74
  C 1310.73 114.61 1313.60 115.54 1320.05 116.97
  Q 1326.54 118.40 1329.88 120.22
  Q 1338.34 124.83 1344.11 132.65
  Q 1347.07 136.66 1348.99 143.98
  Q 1351.21 152.44 1351.49 156.25
  Q 1351.61 157.85 1350.06 164.81
  Q 1348.88 170.09 1346.79 177.27
  Q 1344.83 183.98 1344.57 188.94
  C 1344.05 198.97 1344.78 209.27 1348.49 219.09
  Q 1352.60 229.95 1357.67 239.91
  Q 1363.31 250.99 1371.58 266.22
  Q 1381.35 284.21 1384.51 291.28
  Q 1389.31 302.03 1392.58 314.52
  Q 1395.81 326.93 1397.38 337.41
  Q 1400.12 355.65 1397.01 376.02
  A 0.71 0.70 1.9 0 0 1397.77 376.83
  Q 1421.75 374.48 1444.49 379.34
  Q 1454.35 381.44 1464.01 384.13
  Q 1479.09 388.33 1494.33 396.41
  Q 1526.35 413.39 1526.83 413.65
  C 1538.24 419.73 1548.05 424.30 1558.71 428.04
  Q 1565.36 430.37 1572.08 430.93
  Q 1588.30 432.27 1602.15 427.67
  Q 1605.36 426.60 1615.39 424.59
  Q 1618.85 423.90 1622.20 424.51
  Q 1632.53 426.39 1635.20 427.67
  C 1644.67 432.19 1654.14 440.76 1656.89 451.15
  Q 1656.93 451.31 1658.79 458.88
  Q 1660.06 464.10 1659.59 467.61
  Q 1659.00 472.06 1656.91 479.93
  C 1655.54 485.10 1653.18 488.28 1649.39 492.96
  C 1645.97 497.18 1640.71 501.30 1637.06 504.81
  Q 1633.02 508.70 1629.56 514.55
  Q 1621.32 528.50 1619.18 544.48
  Q 1617.97 553.54 1617.75 560.50
  Q 1617.11 580.52 1616.47 598.01
  Q 1615.96 611.96 1615.28 617.99
  Q 1612.48 642.97 1603.50 665.80
  Q 1597.72 680.49 1584.12 699.27
  Q 1583.74 699.79 1584.33 700.05
  Z
  M 997.64 216.67
  Q 994.07 209.61 991.77 206.50
  Q 987.02 200.10 980.74 194.12
  Q 976.41 190.00 967.58 184.49
  Q 955.94 177.23 952.97 175.44
  Q 934.29 164.17 917.84 152.52
  Q 902.18 141.43 888.93 128.05
  A 0.57 0.57 0.0 0 0 888.12 128.05
  C 883.76 132.56 879.58 136.97 874.46 141.15
  Q 863.73 149.89 851.67 157.92
  Q 835.53 168.66 813.13 182.13
  C 800.32 189.83 789.15 199.52 780.76 212.00
  Q 778.74 215.01 777.42 217.86
  A 0.27 0.26 7.1 0 0 777.71 218.23
  Q 887.61 199.28 998.03 218.34
  A 0.25 0.25 0.0 0 0 998.30 217.98
  Q 998.26 217.90 997.64 216.67
  Z
  M 465.38 356.88
  Q 472.17 350.85 490.38 337.87
  Q 510.76 323.35 524.20 314.73
  Q 583.45 276.70 648.77 252.56
  Q 649.34 252.34 648.84 251.98
  Q 640.31 245.82 630.28 242.03
  C 624.76 239.94 619.53 239.38 613.76 238.92
  Q 606.50 238.33 599.00 238.17
  Q 573.23 237.60 553.02 236.23
  Q 538.47 235.25 526.05 232.32
  Q 509.39 228.40 509.11 228.33
  Q 508.54 228.20 508.42 228.70
  Q 504.51 243.92 503.91 245.64
  Q 497.99 262.62 488.80 280.30
  Q 480.74 295.82 471.09 313.36
  Q 466.88 321.02 462.57 331.86
  Q 459.65 339.20 458.80 345.58
  Q 458.00 351.51 457.80 362.02
  Q 457.79 362.66 458.33 362.32
  Q 461.36 360.45 465.38 356.88
  Z
  M 1316.82 362.45
  A 0.51 0.51 0.0 0 0 1317.62 362.07
  Q 1318.41 351.73 1316.95 341.62
  C 1316.06 335.53 1312.83 328.52 1309.93 322.84
  Q 1301.24 305.82 1289.26 283.51
  Q 1283.32 272.44 1280.31 265.64
  Q 1272.53 248.04 1268.53 229.75
  A 0.55 0.54 -13.3 0 0 1267.86 229.34
  Q 1257.21 232.05 1246.84 234.34
  Q 1236.83 236.54 1221.27 237.49
  Q 1219.87 237.57 1168.00 239.91
  Q 1156.24 240.43 1151.99 241.43
  Q 1145.57 242.94 1139.65 245.65
  Q 1133.02 248.69 1126.89 252.33
  A 0.29 0.28 39.8 0 0 1126.94 252.84
  Q 1186.76 275.09 1240.72 308.40
  Q 1270.01 326.48 1303.22 351.65
  Q 1306.10 353.83 1309.99 357.19
  Q 1313.12 359.89 1316.82 362.45
  Z
  M 1094.44 526.61
  A 1.25 1.24 75.0 0 0 1095.52 527.24
  L 1363.28 527.24
  Q 1363.91 527.24 1363.53 526.73
  Q 1361.13 523.54 1358.86 520.61
  Q 1353.63 513.85 1339.77 497.63
  Q 1287.39 436.34 1220.09 391.14
  Q 1174.00 360.18 1117.36 335.60
  Q 1110.51 332.62 1098.73 328.24
  Q 1077.75 320.42 1065.52 316.48
  Q 1027.54 304.23 989.06 297.94
  Q 975.35 295.70 960.70 293.89
  Q 960.03 293.81 960.37 294.40
  L 1094.44 526.61
  Z
  M 814.57 294.49
  A 0.19 0.18 -60.8 0 0 814.50 294.23
  Q 814.22 294.09 813.77 294.14
  Q 762.15 299.91 712.86 315.35
  Q 631.44 340.87 559.23 388.55
  Q 539.12 401.83 533.80 405.81
  Q 464.40 457.72 411.50 526.67
  A 0.36 0.35 18.5 0 0 411.79 527.24
  L 679.68 527.24
  Q 680.19 527.24 680.45 526.79
  L 814.57 294.49
  Z
  M 773.72 526.71
  A 0.35 0.35 0.0 0 0 774.02 527.24
  L 1000.98 527.24
  A 0.35 0.35 0.0 0 0 1001.28 526.71
  L 887.80 330.30
  A 0.35 0.35 0.0 0 0 887.20 330.30
  L 773.72 526.71
  Z
  M 230.37 505.33
  Q 238.10 533.25 239.32 561.97
  Q 240.27 584.34 240.55 598.47
  Q 240.85 614.33 242.10 619.39
  Q 245.69 634.01 253.30 646.70
  A 0.43 0.42 -50.2 0 0 254.06 646.63
  Q 274.00 593.43 302.99 544.21
  Q 308.51 534.83 312.29 529.00
  Q 321.84 514.24 321.98 514.01
  Q 327.40 505.20 333.07 497.39
  Q 349.45 474.81 364.56 456.11
  A 0.20 0.20 0.0 0 0 364.44 455.78
  Q 353.71 453.92 343.48 457.70
  C 332.22 461.87 321.40 467.76 310.31 473.64
  Q 288.33 485.30 282.10 488.51
  Q 279.32 489.94 277.19 490.61
  Q 258.75 496.39 230.77 504.60
  A 0.59 0.59 0.0 0 0 230.37 505.33
  Z
  M 1545.68 507.45
  A 0.38 0.38 0.0 0 0 1545.39 506.97
  Q 1525.84 502.98 1507.72 494.57
  Q 1497.41 489.78 1464.09 471.98
  Q 1457.00 468.20 1447.70 463.80
  Q 1430.11 455.49 1411.38 456.76
  Q 1410.82 456.80 1411.18 457.24
  Q 1431.23 481.88 1441.42 496.82
  Q 1459.19 522.86 1468.00 537.32
  Q 1496.18 583.62 1516.55 635.34
  Q 1520.60 645.62 1521.41 647.49
  A 0.35 0.35 0.0 0 0 1522.03 647.54
  Q 1526.89 640.02 1530.39 632.18
  Q 1533.57 625.04 1534.42 618.00
  Q 1535.56 608.48 1535.65 602.75
  Q 1536.04 576.91 1537.16 558.01
  Q 1538.69 532.31 1545.68 507.45
  Z
  M 633.26 608.36
  A 0.35 0.35 0.0 0 0 632.96 607.84
  L 406.50 607.84
  A 0.35 0.35 0.0 0 0 406.20 608.36
  L 519.43 804.24
  A 0.35 0.35 0.0 0 0 520.03 804.24
  L 633.26 608.36
  Z
  M 727.26 607.88
  Q 726.78 608.16 646.81 746.66
  Q 566.83 885.16 566.83 885.71
  Q 566.83 886.27 646.79 1024.78
  Q 726.75 1163.29 727.23 1163.56
  Q 727.71 1163.84 887.64 1163.85
  Q 1047.57 1163.86 1048.05 1163.58
  Q 1048.53 1163.31 1128.51 1024.81
  Q 1208.48 886.31 1208.48 885.75
  Q 1208.48 885.20 1128.52 746.69
  Q 1048.57 608.18 1048.08 607.90
  Q 1047.60 607.62 887.67 607.61
  Q 727.74 607.60 727.26 607.88
  Z
  M 1369.49 608.34
  A 0.33 0.33 0.0 0 0 1369.20 607.84
  L 1142.06 607.84
  A 0.33 0.33 0.0 0 0 1141.77 608.34
  L 1255.34 804.89
  A 0.33 0.33 0.0 0 0 1255.92 804.89
  L 1369.49 608.34
  Z
  M 290.79 885.57
  Q 290.75 951.15 304.10 1013.97
  Q 306.26 1024.16 308.72 1033.44
  Q 320.26 1077.06 338.01 1118.49
  A 0.17 0.17 0.0 0 0 338.31 1118.51
  Q 374.50 1056.10 380.53 1045.54
  Q 389.33 1030.14 398.34 1014.86
  Q 398.69 1014.27 472.87 885.96
  Q 472.94 885.83 472.94 885.68
  Q 472.94 885.54 472.87 885.41
  Q 398.86 757.00 398.51 756.41
  Q 389.52 741.12 380.74 725.71
  Q 374.72 715.14 338.61 652.68
  A 0.17 0.17 0.0 0 0 338.31 652.70
  Q 320.51 694.11 308.91 737.72
  Q 306.44 746.99 304.27 757.18
  Q 290.83 819.98 290.79 885.57
  Z
  M 1302.43 886.00
  Q 1302.43 886.33 1302.61 886.63
  Q 1405.86 1065.28 1436.60 1118.58
  A 0.22 0.21 -48.7 0 0 1436.98 1118.55
  Q 1450.57 1086.64 1460.53 1053.77
  Q 1471.07 1019.01 1476.77 982.25
  Q 1484.20 934.33 1484.21 886.03
  Q 1484.21 837.72 1476.80 789.80
  Q 1471.11 753.04 1460.58 718.27
  Q 1450.63 685.40 1437.05 653.49
  A 0.22 0.21 48.8 0 0 1436.67 653.46
  Q 1405.91 706.75 1302.61 885.37
  Q 1302.43 885.67 1302.43 886.00
  Z
  M 129.11 885.22
  Q 136.28 891.83 142.32 899.18
  Q 145.79 903.42 152.93 913.02
  Q 157.77 919.55 162.76 927.36
  C 167.91 935.41 174.54 945.65 180.21 955.27
  Q 183.90 961.53 188.39 968.17
  Q 200.23 985.67 218.65 995.88
  A 0.48 0.48 0.0 0 0 219.35 995.37
  Q 200.59 885.95 219.49 775.73
  A 0.23 0.23 0.0 0 0 219.17 775.48
  Q 203.11 782.69 192.42 795.99
  Q 189.84 799.20 181.29 812.59
  Q 175.06 822.36 168.94 832.21
  Q 156.52 852.23 151.48 858.98
  Q 141.13 872.86 129.10 884.69
  A 0.36 0.36 0.0 0 0 129.11 885.22
  Z
  M 1555.92 776.00
  A 0.21 0.21 0.0 0 0 1555.62 776.22
  Q 1574.48 885.46 1555.51 996.37
  A 0.20 0.20 0.0 0 0 1555.79 996.58
  Q 1575.23 987.50 1586.61 970.63
  Q 1592.40 962.03 1599.61 949.85
  Q 1611.73 929.35 1626.49 909.50
  C 1630.73 903.79 1634.68 899.61 1638.73 894.54
  C 1640.67 892.12 1643.56 889.84 1645.88 887.43
  Q 1646.25 887.05 1645.87 886.67
  Q 1636.22 877.20 1633.61 873.89
  Q 1616.62 852.40 1603.11 830.16
  Q 1594.44 815.90 1591.86 811.64
  C 1582.65 796.47 1571.28 783.97 1555.92 776.00
  Z
  M 406.00 1162.95
  A 0.34 0.34 0.0 0 0 406.30 1163.46
  L 633.06 1163.46
  A 0.34 0.34 0.0 0 0 633.36 1162.95
  L 519.97 966.69
  A 0.34 0.34 0.0 0 0 519.39 966.69
  L 406.00 1162.95
  Z
  M 1142.34 1162.91
  A 0.36 0.36 0.0 0 0 1142.65 1163.45
  L 1368.69 1163.45
  A 0.36 0.36 0.0 0 0 1369.00 1162.91
  L 1255.98 967.36
  A 0.36 0.36 0.0 0 0 1255.36 967.36
  L 1142.34 1162.91
  Z
  M 253.14 1124.60
  Q 241.19 1141.20 239.59 1161.81
  Q 239.21 1166.72 239.05 1184.25
  Q 238.91 1199.86 237.22 1220.57
  Q 236.25 1232.41 234.82 1240.43
  Q 232.96 1250.87 229.39 1264.04
  Q 229.15 1264.93 230.05 1265.12
  Q 250.53 1269.25 270.27 1278.79
  Q 281.77 1284.34 319.62 1304.71
  Q 326.87 1308.62 338.00 1312.41
  C 346.08 1315.16 355.35 1315.53 363.55 1315.38
  A 0.40 0.40 0.0 0 0 363.86 1314.73
  Q 362.27 1312.75 362.22 1312.70
  Q 358.87 1309.63 340.82 1285.05
  Q 286.09 1210.52 253.73 1124.68
  Q 253.51 1124.08 253.14 1124.60
  Z
  M 1410.67 1315.44
  A 0.23 0.23 0.0 0 0 1410.83 1315.81
  Q 1417.20 1316.32 1426.12 1315.87
  Q 1432.12 1315.56 1436.12 1314.36
  Q 1441.75 1312.66 1450.16 1308.42
  Q 1464.67 1301.09 1488.66 1288.44
  C 1506.70 1278.93 1524.60 1270.85 1544.03 1266.90
  A 0.62 0.62 0.0 0 0 1544.51 1266.14
  Q 1541.82 1255.48 1539.17 1243.33
  Q 1538.07 1238.28 1536.74 1225.80
  Q 1536.00 1218.91 1535.68 1208.17
  Q 1534.68 1174.44 1534.59 1173.00
  Q 1533.45 1154.38 1532.45 1150.42
  Q 1529.04 1137.05 1521.68 1125.25
  A 0.31 0.30 55.7 0 0 1521.23 1125.16
  Q 1520.99 1125.35 1520.88 1125.63
  Q 1492.72 1200.11 1448.37 1264.91
  Q 1429.46 1292.55 1410.67 1315.44
  Z
  M 410.95 1244.10
  Q 421.52 1258.67 435.56 1274.88
  Q 489.63 1337.35 558.02 1382.95
  Q 569.71 1390.75 587.42 1401.12
  Q 654.52 1440.42 731.27 1462.04
  Q 771.33 1473.32 815.19 1478.03
  Q 815.43 1478.05 815.31 1477.85
  Q 797.56 1447.62 789.82 1434.16
  Q 783.91 1423.86 680.65 1244.78
  A 1.45 1.44 74.6 0 0 679.41 1244.07
  L 410.97 1244.07
  Q 410.93 1244.07 410.95 1244.10
  Z
  M 1001.95 1244.55
  A 0.32 0.32 0.0 0 0 1001.68 1244.07
  L 774.02 1244.07
  A 0.32 0.32 0.0 0 0 773.75 1244.55
  L 887.57 1441.63
  A 0.32 0.32 0.0 0 0 888.13 1441.63
  L 1001.95 1244.55
  Z
  M 1294.47 1321.72
  Q 1332.81 1285.76 1363.70 1244.91
  Q 1364.34 1244.07 1363.28 1244.07
  L 1095.90 1244.07
  A 1.12 1.10 12.7 0 0 1094.90 1244.69
  Q 1093.69 1247.23 1092.14 1249.88
  Q 1081.40 1268.39 1025.68 1365.13
  Q 1024.86 1366.55 960.79 1477.14
  A 0.45 0.45 0.0 0 0 961.17 1477.82
  Q 962.79 1477.86 965.96 1477.44
  Q 1030.14 1469.13 1088.28 1447.76
  Q 1145.18 1426.84 1193.52 1397.72
  Q 1231.42 1374.89 1265.08 1347.05
  Q 1277.88 1336.45 1285.73 1329.71
  Q 1288.61 1327.23 1294.47 1321.72
  Z
  M 647.70 1519.29
  Q 647.60 1519.12 635.43 1514.34
  Q 574.26 1490.30 516.28 1451.89
  Q 488.11 1433.23 480.27 1426.96
  Q 465.57 1415.22 458.19 1409.49
  A 0.52 0.52 0.0 0 0 457.35 1409.88
  Q 457.00 1417.83 457.51 1425.25
  C 458.22 1435.47 461.91 1443.20 467.06 1452.93
  Q 484.23 1485.39 489.06 1494.99
  Q 496.20 1509.18 501.00 1522.59
  Q 504.45 1532.21 506.36 1542.05
  A 0.83 0.83 0.0 0 0 507.41 1542.68
  Q 532.13 1535.58 556.51 1534.19
  Q 556.79 1534.17 576.49 1533.41
  C 589.35 1532.92 606.72 1533.01 621.54 1530.76
  Q 627.21 1529.90 633.41 1527.14
  Q 641.30 1523.63 647.64 1520.09
  Q 648.06 1519.85 647.70 1519.29
  Z
  M 1265.84 1543.70
  A 0.61 0.61 0.0 0 0 1266.59 1543.23
  Q 1270.17 1526.49 1277.05 1510.81
  Q 1282.72 1497.88 1292.51 1479.74
  Q 1301.96 1462.22 1304.68 1456.95
  Q 1311.46 1443.83 1313.98 1436.02
  C 1316.70 1427.55 1316.99 1418.35 1317.20 1409.90
  A 0.30 0.30 0.0 0 0 1316.73 1409.65
  Q 1312.94 1412.34 1308.31 1416.29
  Q 1306.26 1418.04 1299.90 1422.90
  Q 1272.11 1444.13 1240.78 1463.52
  Q 1186.83 1496.91 1126.10 1519.48
  A 0.36 0.36 0.0 0 0 1126.02 1520.12
  Q 1136.42 1527.01 1148.27 1531.11
  C 1150.98 1532.04 1154.76 1532.73 1157.30 1532.91
  Q 1169.26 1533.80 1185.01 1534.08
  Q 1197.72 1534.30 1217.04 1535.56
  Q 1228.80 1536.33 1236.91 1537.56
  Q 1249.76 1539.51 1265.84 1543.70
  Z
  M 995.43 1554.09
  Q 900.21 1570.23 803.52 1557.76
  Q 792.42 1556.32 777.10 1553.60
  A 0.22 0.22 0.0 0 0 776.87 1553.92
  Q 781.41 1562.68 785.99 1569.15
  C 789.92 1574.72 795.41 1579.04 801.05 1583.22
  Q 804.33 1585.65 809.13 1588.58
  Q 831.42 1602.20 839.04 1607.21
  Q 858.73 1620.17 871.34 1630.52
  Q 879.80 1637.47 886.12 1643.99
  A 0.50 0.50 0.0 0 0 886.84 1643.98
  Q 894.46 1635.80 906.35 1626.10
  Q 911.39 1621.98 926.07 1612.18
  Q 933.29 1607.36 942.94 1601.44
  Q 950.13 1597.03 962.48 1589.45
  C 977.24 1580.40 989.31 1569.38 997.56 1554.39
  A 0.35 0.35 0.0 0 0 997.26 1553.87
  Q 996.83 1553.85 995.43 1554.09
  Z"
/>
</svg>
